{
    "asset" : {
        "generator" : "Khronos glTF Blender I/O v1.6.16",
        "version" : "2.0"
    },
    "scene" : 0,
    "scenes" : [
        {
            "name" : "Scene",
            "nodes" : [
                0
            ]
        }
    ],
    "nodes" : [
        {
            "mesh" : 0,
            "name" : "Wall_Modular"
        }
    ],
    "materials" : [
        {
            "doubleSided" : true,
            "name" : "Wall_Medium",
            "normalTexture" : {
                "index" : 0
            },
            "pbrMetallicRoughness" : {
                "baseColorTexture" : {
                    "index" : 1
                },
                "metallicRoughnessTexture" : {
                    "index" : 2
                }
            }
        }
    ],
    "meshes" : [
        {
            "name" : "Cube.005",
            "primitives" : [
                {
                    "attributes" : {
                        "POSITION" : 0,
                        "NORMAL" : 1,
                        "TEXCOORD_0" : 2
                    },
                    "indices" : 3,
                    "material" : 0
                }
            ]
        }
    ],
    "textures" : [
        {
            "sampler" : 0,
            "source" : 0
        },
        {
            "sampler" : 0,
            "source" : 1
        },
        {
            "sampler" : 0,
            "source" : 2
        }
    ],
    "images" : [
        {
            "mimeType" : "image/jpeg",
            "name" : "Seamless_Concrete_Wall_Texture_NORMAL",
            "uri" : "textures/Seamless_Concrete_Wall_Texture_NORMAL.jpg"
        },
        {
            "mimeType" : "image/jpeg",
            "name" : "Seamless_Concrete_Wall_Texture",
            "uri" : "textures/Seamless_Concrete_Wall_Texture.jpg"
        },
        {
            "mimeType" : "image/png",
            "name" : "zero-Seamless_Concrete_Wall_Texture_SPECULAR_INVERTED",
            "uri" : "textures/zero-Seamless_Concrete_Wall_Texture_SPECULAR_INVERTED.png"
        }
    ],
    "accessors" : [
        {
            "bufferView" : 0,
            "componentType" : 5126,
            "count" : 1642,
            "max" : [
                1.010357141494751,
                1.0081151723861694,
                0.18727180361747742
            ],
            "min" : [
                -1.0107395648956299,
                -1.0084872245788574,
                -0.21903599798679352
            ],
            "type" : "VEC3"
        },
        {
            "bufferView" : 1,
            "componentType" : 5126,
            "count" : 1642,
            "type" : "VEC3"
        },
        {
            "bufferView" : 2,
            "componentType" : 5126,
            "count" : 1642,
            "type" : "VEC2"
        },
        {
            "bufferView" : 3,
            "componentType" : 5123,
            "count" : 2526,
            "type" : "SCALAR"
        }
    ],
    "bufferViews" : [
        {
            "buffer" : 0,
            "byteLength" : 19704,
            "byteOffset" : 0
        },
        {
            "buffer" : 0,
            "byteLength" : 19704,
            "byteOffset" : 19704
        },
        {
            "buffer" : 0,
            "byteLength" : 13136,
            "byteOffset" : 39408
        },
        {
            "buffer" : 0,
            "byteLength" : 5052,
            "byteOffset" : 52544
        }
    ],
    "samplers" : [
        {
            "magFilter" : 9729,
            "minFilter" : 9987
        }
    ],
    "buffers" : [
        {
            "byteLength" : 57596,
            "uri" : "Wall_Modular.bin"
        }
    ]
}
