{
    "asset" : {
        "generator" : "Khronos glTF Blender I/O v1.6.16",
        "version" : "2.0"
    },
    "scene" : 0,
    "scenes" : [
        {
            "name" : "Scene",
            "nodes" : [
                0
            ]
        }
    ],
    "nodes" : [
        {
            "mesh" : 0,
            "name" : "Arch"
        }
    ],
    "materials" : [
        {
            "doubleSided" : true,
            "name" : "Wall_Medium",
            "normalTexture" : {
                "index" : 0
            },
            "pbrMetallicRoughness" : {
                "baseColorTexture" : {
                    "index" : 1
                },
                "metallicRoughnessTexture" : {
                    "index" : 2
                }
            }
        }
    ],
    "meshes" : [
        {
            "name" : "Cube.035",
            "primitives" : [
                {
                    "attributes" : {
                        "POSITION" : 0,
                        "NORMAL" : 1,
                        "TEXCOORD_0" : 2
                    },
                    "indices" : 3,
                    "material" : 0
                }
            ]
        }
    ],
    "textures" : [
        {
            "sampler" : 0,
            "source" : 0
        },
        {
            "sampler" : 0,
            "source" : 1
        },
        {
            "sampler" : 0,
            "source" : 2
        }
    ],
    "images" : [
        {
            "mimeType" : "image/jpeg",
            "name" : "Seamless_Concrete_Wall_Texture_NORMAL",
            "uri" : "textures/Seamless_Concrete_Wall_Texture_NORMAL.jpg"
        },
        {
            "mimeType" : "image/jpeg",
            "name" : "Seamless_Concrete_Wall_Texture",
            "uri" : "textures/Seamless_Concrete_Wall_Texture.jpg"
        },
        {
            "mimeType" : "image/png",
            "name" : "zero-Seamless_Concrete_Wall_Texture_SPECULAR_INVERTED",
            "uri" : "textures/zero-Seamless_Concrete_Wall_Texture_SPECULAR_INVERTED.png"
        }
    ],
    "accessors" : [
        {
            "bufferView" : 0,
            "componentType" : 5126,
            "count" : 8796,
            "max" : [
                2.052180528640747,
                4.010048866271973,
                0.523223876953125
            ],
            "min" : [
                -2.052180528640747,
                -2.19736248254776e-05,
                -0.46938836574554443
            ],
            "type" : "VEC3"
        },
        {
            "bufferView" : 1,
            "componentType" : 5126,
            "count" : 8796,
            "type" : "VEC3"
        },
        {
            "bufferView" : 2,
            "componentType" : 5126,
            "count" : 8796,
            "type" : "VEC2"
        },
        {
            "bufferView" : 3,
            "componentType" : 5123,
            "count" : 13560,
            "type" : "SCALAR"
        }
    ],
    "bufferViews" : [
        {
            "buffer" : 0,
            "byteLength" : 105552,
            "byteOffset" : 0
        },
        {
            "buffer" : 0,
            "byteLength" : 105552,
            "byteOffset" : 105552
        },
        {
            "buffer" : 0,
            "byteLength" : 70368,
            "byteOffset" : 211104
        },
        {
            "buffer" : 0,
            "byteLength" : 27120,
            "byteOffset" : 281472
        }
    ],
    "samplers" : [
        {
            "magFilter" : 9729,
            "minFilter" : 9987
        }
    ],
    "buffers" : [
        {
            "byteLength" : 308592,
            "uri" : "Arch.bin"
        }
    ]
}
