{
    "asset" : {
        "generator" : "Khronos glTF Blender I/O v1.6.16",
        "version" : "2.0"
    },
    "scene" : 0,
    "scenes" : [
        {
            "name" : "Scene",
            "nodes" : [
                0
            ]
        }
    ],
    "nodes" : [
        {
            "mesh" : 0,
            "name" : "Key1"
        }
    ],
    "materials" : [
        {
            "doubleSided" : true,
            "name" : "Brown",
            "pbrMetallicRoughness" : {
                "baseColorFactor" : [
                    0.13757768273353577,
                    0.07494225353002548,
                    0.051091987639665604,
                    1
                ],
                "metallicFactor" : 0,
                "roughnessFactor" : 0.5
            }
        }
    ],
    "meshes" : [
        {
            "name" : "Cube.008",
            "primitives" : [
                {
                    "attributes" : {
                        "POSITION" : 0,
                        "NORMAL" : 1
                    },
                    "indices" : 2,
                    "material" : 0
                }
            ]
        }
    ],
    "accessors" : [
        {
            "bufferView" : 0,
            "componentType" : 5126,
            "count" : 566,
            "max" : [
                0.144987553358078,
                0.39380326867103577,
                0.04301515594124794
            ],
            "min" : [
                -0.14268359541893005,
                -0.47277969121932983,
                -0.04291693493723869
            ],
            "type" : "VEC3"
        },
        {
            "bufferView" : 1,
            "componentType" : 5126,
            "count" : 566,
            "type" : "VEC3"
        },
        {
            "bufferView" : 2,
            "componentType" : 5123,
            "count" : 852,
            "type" : "SCALAR"
        }
    ],
    "bufferViews" : [
        {
            "buffer" : 0,
            "byteLength" : 6792,
            "byteOffset" : 0
        },
        {
            "buffer" : 0,
            "byteLength" : 6792,
            "byteOffset" : 6792
        },
        {
            "buffer" : 0,
            "byteLength" : 1704,
            "byteOffset" : 13584
        }
    ],
    "buffers" : [
        {
            "byteLength" : 15288,
            "uri" : "Key1.bin"
        }
    ]
}
