{
    "asset" : {
        "generator" : "Khronos glTF Blender I/O v1.6.16",
        "version" : "2.0"
    },
    "scene" : 0,
    "scenes" : [
        {
            "name" : "Scene",
            "nodes" : [
                0
            ]
        }
    ],
    "nodes" : [
        {
            "mesh" : 0,
            "name" : "Chair"
        }
    ],
    "materials" : [
        {
            "doubleSided" : true,
            "name" : "Material",
            "normalTexture" : {
                "index" : 0
            },
            "pbrMetallicRoughness" : {
                "baseColorTexture" : {
                    "index" : 1
                },
                "metallicRoughnessTexture" : {
                    "index" : 2
                }
            }
        }
    ],
    "meshes" : [
        {
            "name" : "Cube.027",
            "primitives" : [
                {
                    "attributes" : {
                        "POSITION" : 0,
                        "NORMAL" : 1,
                        "TEXCOORD_0" : 2
                    },
                    "indices" : 3,
                    "material" : 0
                }
            ]
        }
    ],
    "textures" : [
        {
            "sampler" : 0,
            "source" : 0
        },
        {
            "sampler" : 0,
            "source" : 1
        },
        {
            "sampler" : 0,
            "source" : 2
        }
    ],
    "images" : [
        {
            "mimeType" : "image/png",
            "name" : "normal-chair",
            "uri" : "textures/normal-chair.png"
        },
        {
            "mimeType" : "image/png",
            "name" : "diffuse-chair",
            "uri" : "textures/diffuse-chair.png"
        },
        {
            "mimeType" : "image/png",
            "name" : "zero-specular-chair-INVERTED",
            "uri" : "textures/zero-specular-chair-INVERTED.png"
        }
    ],
    "accessors" : [
        {
            "bufferView" : 0,
            "componentType" : 5126,
            "count" : 2425,
            "max" : [
                0.31349897384643555,
                1.1626205444335938,
                0.3421955108642578
            ],
            "min" : [
                -0.31349897384643555,
                0.0036767427809536457,
                -0.3602434992790222
            ],
            "type" : "VEC3"
        },
        {
            "bufferView" : 1,
            "componentType" : 5126,
            "count" : 2425,
            "type" : "VEC3"
        },
        {
            "bufferView" : 2,
            "componentType" : 5126,
            "count" : 2425,
            "type" : "VEC2"
        },
        {
            "bufferView" : 3,
            "componentType" : 5123,
            "count" : 3894,
            "type" : "SCALAR"
        }
    ],
    "bufferViews" : [
        {
            "buffer" : 0,
            "byteLength" : 29100,
            "byteOffset" : 0
        },
        {
            "buffer" : 0,
            "byteLength" : 29100,
            "byteOffset" : 29100
        },
        {
            "buffer" : 0,
            "byteLength" : 19400,
            "byteOffset" : 58200
        },
        {
            "buffer" : 0,
            "byteLength" : 7788,
            "byteOffset" : 77600
        }
    ],
    "samplers" : [
        {
            "magFilter" : 9729,
            "minFilter" : 9987
        }
    ],
    "buffers" : [
        {
            "byteLength" : 85388,
            "uri" : "Chair.bin"
        }
    ]
}
