{
    "asset" : {
        "generator" : "Khronos glTF Blender I/O v1.6.16",
        "version" : "2.0"
    },
    "scene" : 0,
    "scenes" : [
        {
            "name" : "Scene",
            "nodes" : [
                0
            ]
        }
    ],
    "nodes" : [
        {
            "mesh" : 0,
            "name" : "Chest_Base"
        }
    ],
    "materials" : [
        {
            "doubleSided" : true,
            "name" : "Main",
            "normalTexture" : {
                "index" : 0
            },
            "pbrMetallicRoughness" : {
                "baseColorTexture" : {
                    "index" : 1
                },
                "metallicFactor" : 0,
                "roughnessFactor" : 0.5
            }
        }
    ],
    "meshes" : [
        {
            "name" : "Cube",
            "primitives" : [
                {
                    "attributes" : {
                        "POSITION" : 0,
                        "NORMAL" : 1,
                        "TEXCOORD_0" : 2
                    },
                    "indices" : 3,
                    "material" : 0
                }
            ]
        }
    ],
    "textures" : [
        {
            "sampler" : 0,
            "source" : 0
        },
        {
            "sampler" : 0,
            "source" : 1
        }
    ],
    "images" : [
        {
            "mimeType" : "image/jpeg",
            "name" : "fine_wood_pine_seamless_texture_texturise_NORMAL",
            "uri" : "textures/fine_wood_pine_seamless_texture_texturise_NORMAL.jpg"
        },
        {
            "mimeType" : "image/png",
            "name" : "diffuse-palette",
            "uri" : "textures/diffuse-palette.png"
        }
    ],
    "accessors" : [
        {
            "bufferView" : 0,
            "componentType" : 5126,
            "count" : 3170,
            "max" : [
                0.5890504717826843,
                1.2135133743286133,
                0.386610746383667
            ],
            "min" : [
                -0.5902674198150635,
                -0.001326166559010744,
                -0.8787537813186646
            ],
            "type" : "VEC3"
        },
        {
            "bufferView" : 1,
            "componentType" : 5126,
            "count" : 3170,
            "type" : "VEC3"
        },
        {
            "bufferView" : 2,
            "componentType" : 5126,
            "count" : 3170,
            "type" : "VEC2"
        },
        {
            "bufferView" : 3,
            "componentType" : 5123,
            "count" : 4752,
            "type" : "SCALAR"
        }
    ],
    "bufferViews" : [
        {
            "buffer" : 0,
            "byteLength" : 38040,
            "byteOffset" : 0
        },
        {
            "buffer" : 0,
            "byteLength" : 38040,
            "byteOffset" : 38040
        },
        {
            "buffer" : 0,
            "byteLength" : 25360,
            "byteOffset" : 76080
        },
        {
            "buffer" : 0,
            "byteLength" : 9504,
            "byteOffset" : 101440
        }
    ],
    "samplers" : [
        {
            "magFilter" : 9729,
            "minFilter" : 9987
        }
    ],
    "buffers" : [
        {
            "byteLength" : 110944,
            "uri" : "Chest.bin"
        }
    ]
}
