{
    "asset" : {
        "generator" : "Khronos glTF Blender I/O v1.6.16",
        "version" : "2.0"
    },
    "scene" : 0,
    "scenes" : [
        {
            "name" : "Scene",
            "nodes" : [
                0
            ]
        }
    ],
    "nodes" : [
        {
            "mesh" : 0,
            "name" : "Arch_Door",
            "translation" : [
                -1.2000000476837158,
                1.4649120569229126,
                0
            ]
        }
    ],
    "materials" : [
        {
            "doubleSided" : true,
            "name" : "Main",
            "normalTexture" : {
                "index" : 0
            },
            "pbrMetallicRoughness" : {
                "baseColorTexture" : {
                    "index" : 1
                },
                "metallicRoughnessTexture" : {
                    "index" : 2
                }
            }
        }
    ],
    "meshes" : [
        {
            "name" : "Cube.044",
            "primitives" : [
                {
                    "attributes" : {
                        "POSITION" : 0,
                        "NORMAL" : 1,
                        "TEXCOORD_0" : 2
                    },
                    "indices" : 3,
                    "material" : 0
                }
            ]
        }
    ],
    "textures" : [
        {
            "sampler" : 0,
            "source" : 0
        },
        {
            "sampler" : 0,
            "source" : 1
        },
        {
            "sampler" : 0,
            "source" : 2
        }
    ],
    "images" : [
        {
            "mimeType" : "image/png",
            "name" : "normal-atlas",
            "uri" : "textures/normal-atlas.png"
        },
        {
            "mimeType" : "image/png",
            "name" : "diffuse-palette",
            "uri" : "textures/diffuse-palette.png"
        },
        {
            "mimeType" : "image/png",
            "name" : "zero-specular-atlas-INVERTED",
            "uri" : "textures/zero-specular-atlas-INVERTED.png"
        }
    ],
    "accessors" : [
        {
            "bufferView" : 0,
            "componentType" : 5126,
            "count" : 2270,
            "max" : [
                2.421109676361084,
                1.7319260835647583,
                0.15739497542381287
            ],
            "min" : [
                -2.453261913615279e-06,
                -1.4581207036972046,
                -0.1722249835729599
            ],
            "type" : "VEC3"
        },
        {
            "bufferView" : 1,
            "componentType" : 5126,
            "count" : 2270,
            "type" : "VEC3"
        },
        {
            "bufferView" : 2,
            "componentType" : 5126,
            "count" : 2270,
            "type" : "VEC2"
        },
        {
            "bufferView" : 3,
            "componentType" : 5123,
            "count" : 3660,
            "type" : "SCALAR"
        }
    ],
    "bufferViews" : [
        {
            "buffer" : 0,
            "byteLength" : 27240,
            "byteOffset" : 0
        },
        {
            "buffer" : 0,
            "byteLength" : 27240,
            "byteOffset" : 27240
        },
        {
            "buffer" : 0,
            "byteLength" : 18160,
            "byteOffset" : 54480
        },
        {
            "buffer" : 0,
            "byteLength" : 7320,
            "byteOffset" : 72640
        }
    ],
    "samplers" : [
        {
            "magFilter" : 9729,
            "minFilter" : 9987
        }
    ],
    "buffers" : [
        {
            "byteLength" : 79960,
            "uri" : "Door.bin"
        }
    ]
}
