{
    "asset" : {
        "generator" : "Khronos glTF Blender I/O v1.6.16",
        "version" : "2.0"
    },
    "scene" : 0,
    "scenes" : [
        {
            "name" : "Scene",
            "nodes" : [
                1
            ]
        }
    ],
    "nodes" : [
        {
            "mesh" : 0,
            "name" : "Spikes"
        },
        {
            "children" : [
                0
            ],
            "mesh" : 1,
            "name" : "Trap"
        }
    ],
    "materials" : [
        {
            "doubleSided" : true,
            "name" : "DarkMetal",
            "normalTexture" : {
                "index" : 0
            },
            "pbrMetallicRoughness" : {
                "baseColorFactor" : [
                    0.041473258286714554,
                    0.03704424947500229,
                    0.060716427862644196,
                    1
                ],
                "metallicRoughnessTexture" : {
                    "index" : 1
                }
            }
        },
        {
            "doubleSided" : true,
            "name" : "Metal",
            "normalTexture" : {
                "index" : 2
            },
            "pbrMetallicRoughness" : {
                "baseColorFactor" : [
                    0.07698974758386612,
                    0.06832612305879593,
                    0.11493299156427383,
                    1
                ],
                "metallicRoughnessTexture" : {
                    "index" : 3
                }
            }
        }
    ],
    "meshes" : [
        {
            "name" : "Cube.000",
            "primitives" : [
                {
                    "attributes" : {
                        "POSITION" : 0,
                        "NORMAL" : 1,
                        "TEXCOORD_0" : 2
                    },
                    "indices" : 3,
                    "material" : 0
                }
            ]
        },
        {
            "name" : "Cube.051",
            "primitives" : [
                {
                    "attributes" : {
                        "POSITION" : 4,
                        "NORMAL" : 5,
                        "TEXCOORD_0" : 6
                    },
                    "indices" : 7,
                    "material" : 1
                }
            ]
        }
    ],
    "textures" : [
        {
            "sampler" : 0,
            "source" : 0
        },
        {
            "sampler" : 0,
            "source" : 1
        },
        {
            "sampler" : 0,
            "source" : 0
        },
        {
            "sampler" : 0,
            "source" : 1
        }
    ],
    "images" : [
        {
            "mimeType" : "image/jpeg",
            "name" : "Tileable_metal_scratch _texture_NORMAL",
            "uri" : "textures/Tileable_metal_scratch%20_texture_NORMAL.jpg"
        },
        {
            "mimeType" : "image/png",
            "name" : "zero-Tileable_metal_scratch _texture_SPECULAR_INVERTED",
            "uri" : "textures/zero-Tileable_metal_scratch%20_texture_SPECULAR_INVERTED.png"
        }
    ],
    "accessors" : [
        {
            "bufferView" : 0,
            "componentType" : 5126,
            "count" : 1152,
            "max" : [
                0.8822669386863708,
                1.169881820678711,
                0.8822669386863708
            ],
            "min" : [
                -0.8822669386863708,
                -0.005569487810134888,
                -0.8822669386863708
            ],
            "type" : "VEC3"
        },
        {
            "bufferView" : 1,
            "componentType" : 5126,
            "count" : 1152,
            "type" : "VEC3"
        },
        {
            "bufferView" : 2,
            "componentType" : 5126,
            "count" : 1152,
            "type" : "VEC2"
        },
        {
            "bufferView" : 3,
            "componentType" : 5123,
            "count" : 1512,
            "type" : "SCALAR"
        },
        {
            "bufferView" : 4,
            "componentType" : 5126,
            "count" : 1970,
            "max" : [
                0.9946134090423584,
                0.12185753136873245,
                0.9946134090423584
            ],
            "min" : [
                -0.9946134090423584,
                -0.002955824136734009,
                -0.9946134090423584
            ],
            "type" : "VEC3"
        },
        {
            "bufferView" : 5,
            "componentType" : 5126,
            "count" : 1970,
            "type" : "VEC3"
        },
        {
            "bufferView" : 6,
            "componentType" : 5126,
            "count" : 1970,
            "type" : "VEC2"
        },
        {
            "bufferView" : 7,
            "componentType" : 5123,
            "count" : 4368,
            "type" : "SCALAR"
        }
    ],
    "bufferViews" : [
        {
            "buffer" : 0,
            "byteLength" : 13824,
            "byteOffset" : 0
        },
        {
            "buffer" : 0,
            "byteLength" : 13824,
            "byteOffset" : 13824
        },
        {
            "buffer" : 0,
            "byteLength" : 9216,
            "byteOffset" : 27648
        },
        {
            "buffer" : 0,
            "byteLength" : 3024,
            "byteOffset" : 36864
        },
        {
            "buffer" : 0,
            "byteLength" : 23640,
            "byteOffset" : 39888
        },
        {
            "buffer" : 0,
            "byteLength" : 23640,
            "byteOffset" : 63528
        },
        {
            "buffer" : 0,
            "byteLength" : 15760,
            "byteOffset" : 87168
        },
        {
            "buffer" : 0,
            "byteLength" : 8736,
            "byteOffset" : 102928
        }
    ],
    "samplers" : [
        {
            "magFilter" : 9729,
            "minFilter" : 9987
        }
    ],
    "buffers" : [
        {
            "byteLength" : 111664,
            "uri" : "spiketrap.bin"
        }
    ]
}
