{
    "asset" : {
        "generator" : "Khronos glTF Blender I/O v1.6.16",
        "version" : "2.0"
    },
    "scene" : 0,
    "scenes" : [
        {
            "name" : "Scene",
            "nodes" : [
                0
            ]
        }
    ],
    "nodes" : [
        {
            "mesh" : 0,
            "name" : "Sword_WallMount"
        }
    ],
    "materials" : [
        {
            "doubleSided" : true,
            "name" : "Main",
            "normalTexture" : {
                "index" : 0
            },
            "pbrMetallicRoughness" : {
                "baseColorTexture" : {
                    "index" : 1
                },
                "metallicRoughnessTexture" : {
                    "index" : 2
                }
            }
        }
    ],
    "meshes" : [
        {
            "name" : "Cube.002",
            "primitives" : [
                {
                    "attributes" : {
                        "POSITION" : 0,
                        "NORMAL" : 1,
                        "TEXCOORD_0" : 2
                    },
                    "indices" : 3,
                    "material" : 0
                }
            ]
        }
    ],
    "textures" : [
        {
            "sampler" : 0,
            "source" : 0
        },
        {
            "sampler" : 0,
            "source" : 1
        },
        {
            "sampler" : 0,
            "source" : 2
        }
    ],
    "images" : [
        {
            "mimeType" : "image/png",
            "name" : "normal-atlas",
            "uri" : "textures/normal-atlas.png"
        },
        {
            "mimeType" : "image/png",
            "name" : "diffuse-palette",
            "uri" : "textures/diffuse-palette.png"
        },
        {
            "mimeType" : "image/png",
            "name" : "zero-specular-atlas-INVERTED",
            "uri" : "textures/zero-specular-atlas-INVERTED.png"
        }
    ],
    "accessors" : [
        {
            "bufferView" : 0,
            "componentType" : 5126,
            "count" : 4639,
            "max" : [
                0.6080155372619629,
                0.445811927318573,
                0.21078026294708252
            ],
            "min" : [
                -0.4578010141849518,
                -0.40132981538772583,
                -0.0009452030062675476
            ],
            "type" : "VEC3"
        },
        {
            "bufferView" : 1,
            "componentType" : 5126,
            "count" : 4639,
            "type" : "VEC3"
        },
        {
            "bufferView" : 2,
            "componentType" : 5126,
            "count" : 4639,
            "type" : "VEC2"
        },
        {
            "bufferView" : 3,
            "componentType" : 5123,
            "count" : 7146,
            "type" : "SCALAR"
        }
    ],
    "bufferViews" : [
        {
            "buffer" : 0,
            "byteLength" : 55668,
            "byteOffset" : 0
        },
        {
            "buffer" : 0,
            "byteLength" : 55668,
            "byteOffset" : 55668
        },
        {
            "buffer" : 0,
            "byteLength" : 37112,
            "byteOffset" : 111336
        },
        {
            "buffer" : 0,
            "byteLength" : 14292,
            "byteOffset" : 148448
        }
    ],
    "samplers" : [
        {
            "magFilter" : 9729,
            "minFilter" : 9987
        }
    ],
    "buffers" : [
        {
            "byteLength" : 162740,
            "uri" : "Swords_wall.bin"
        }
    ]
}
