<?xml version="1.0" encoding="UTF-8" standalone="no"?>
<!-- Created with Inkscape (http://www.inkscape.org/) -->

<svg
   width="128.09042"
   height="578"
   viewBox="0 0 128.09042 578"
   version="1.1"
   id="svg5"
   inkscape:version="1.1 (c4e8f9e, 2021-05-24)"
   sodipodi:docname="button-icons-final.svg"
   xmlns:inkscape="http://www.inkscape.org/namespaces/inkscape"
   xmlns:sodipodi="http://sodipodi.sourceforge.net/DTD/sodipodi-0.dtd"
   xmlns="http://www.w3.org/2000/svg"
   xmlns:svg="http://www.w3.org/2000/svg">
  <sodipodi:namedview
     id="namedview7"
     pagecolor="#ffffff"
     bordercolor="#111111"
     borderopacity="1"
     inkscape:pageshadow="0"
     inkscape:pageopacity="0"
     inkscape:pagecheckerboard="1"
     inkscape:document-units="px"
     showgrid="false"
     units="px"
     inkscape:zoom="1.0710398"
     inkscape:cx="-83.563656"
     inkscape:cy="287.57102"
     inkscape:window-width="1920"
     inkscape:window-height="1028"
     inkscape:window-x="0"
     inkscape:window-y="27"
     inkscape:window-maximized="1"
     inkscape:current-layer="svg5"
     fit-margin-top="0"
     fit-margin-left="0"
     fit-margin-right="0"
     fit-margin-bottom="0"
     viewbox-x="0"
     inkscape:snap-global="true"
     lock-margins="true"
     inkscape:snap-smooth-nodes="true" />
  <defs
     id="defs2" />
  <g
     id="agi"
     transform="matrix(0.26676996,0,0,0.26676996,-4.1940111,295.19814)">
    <path
       d="M 107.5,18 C 148.228,76.21 43.792,43.914 19.47,20.47 20.528,60.552 119.5,120.103 166.844,92.594 195.904,75.71 136.984,22.936 107.5,18 Z m 97.75,57.28 0.875,1.47 c 120.364,99 -4.023,175.247 -64.97,48.78 C 156.978,208.036 62.73,169.73 51.5,94.875 -13.17,230.463 172.715,231.293 178.438,324 181.668,376.3 100.618,343.908 64.563,275.156 308.49,797.09 814.024,262.64 205.25,75.28 Z m 134.97,136.376 c 44.577,0 85.52,18.708 109.56,52.5 43.656,75.614 -63.777,27.4 -70.717,-8.844 -21.45,58.675 101.883,114.72 16,170.375 25.962,-34.188 2.345,-113.552 -87.875,-109.125 116.512,72.473 42.326,206.9 -19.688,93.157 1.306,35.083 11.99,54.83 27.156,64.436 -60.89,-11.955 -107.03,-65.528 -107.03,-129.906 0,-39.06 16.94,-74.22 43.874,-98.5 1.674,61.897 83.61,37.656 115.97,62.344 -11.544,-60.34 -56.022,-59.933 -82.72,-84.28 16.883,-7.803 35.67,-12.158 55.47,-12.158 z M 234.72,309 c -1.386,0.015 -2.724,0.112 -4.064,0.25 26.032,6.737 74.684,83.827 33.875,61.75 3.41,14.6 43.038,41.75 57.5,21.156 18.816,-26.79 -44.374,-83.634 -87.31,-83.156 z"
       fill="#000000"
       fill-opacity="1"
       id="path826"
       style="fill:#ff9f33;fill-opacity:1" />
  </g>
  <g
     id="attack"
     transform="matrix(0.28684116,0,0,0.28684116,-9.3862276,-9.4313373)">
    <path
       d="m 38.748,473.09 c 12.927162,12.95728 35.062736,3.80084 35.062736,-14.5 0,-18.30084 -22.135574,-27.45728 -35.062736,-14.5 -8.033685,7.99753 -8.033685,21.00247 0,29 z m 88.3066,-236.92006 c 4.05322,-4.72364 11.26919,-4.99882 15.6704,-0.59762 4.4012,4.40121 4.12602,11.61718 -0.59762,15.6704 -18.86069,18.85251 -18.86069,49.42716 0,68.27968 l 49.64385,49.55769 c 18.86976,18.86643 49.46016,18.86643 68.32992,0 4.15706,-4.14564 10.87447,-4.17923 15.07278,-0.0754 4.20812,4.14311 4.20812,10.92966 0,15.07277 -13.06697,13.03484 -30.80652,20.29893 -49.26286,20.1724 -18.46161,0.1283 -36.20479,-7.14631 -49.26286,-20.19752 L 127.0546,334.6831 c -27.202528,-27.20413 -27.202528,-71.30903 0,-98.51316 z M 404.40781,74.268017 C 413.18781,65.958017 479.278,32.88 479.278,32.88 c 0,0 -34.28534,64.862867 -42.60534,73.65287 -58.39,61.66 -187.17353,196.08826 -239.30353,249.54826 l -41.02485,-41.02485 c 53.46,-52.13 186.40353,-182.39826 248.06353,-240.788263 z M 102.65939,380.33139 c 8.8,-8.8 17.5,-16.88 25.68,-23.94 l 27.51167,27.51167 c -7.07,8.19 -15.14,16.88 -23.94,25.68 -13.14749,13.29934 -27.16151,25.71319 -41.950005,37.16 -3.585732,-7.667 -16.748411,-20.90385 -24.371662,-24.58167 11.423204,-14.74348 23.806769,-28.71716 37.069997,-41.83 z"
       fill="#000000"
       fill-opacity="1"
       id="path3196-6"
       style="fill:#949494;fill-opacity:1"
       sodipodi:nodetypes="cscccsccccccccccccccccccccccc" />
  </g>
  <g
     id="dia"
     transform="matrix(0.26983485,0,0,0.26983485,-6.0415976,444.90012)">
    <path
       d="m 250.9,18.9 c -23.9,2.99 -45.3,30.65 -45.3,66.99 0,19.91 6.8,37.41 16.8,49.61 l 12.2,14.5 -18.7,3.5 c -13,2.5 -22.6,9.5 -30.7,20.8 -8.5,11.5 -14.8,26.9 -19.1,45.2 -8,32.7 -9.9,72.7 -9.9,108.2 h 43.6 l 11.7,160.5 c 30.4,7 63.1,6.5 92.3,0 L 314.5,327.7 H 356 c 0,-35.7 -0.5,-76.4 -7.8,-109.7 -3.9,-17.9 -10,-33.7 -18.2,-45.1 -8.2,-11.1 -18.5,-17.8 -33.3,-20.1 l -18.9,-3 11.9,-14.9 c 9.9,-12.1 16.4,-29.6 16.4,-49.01 0,-38.54 -24,-66.99 -50.3,-66.99 z m 145,3.59 v 41.85 h -41.8 v 50.16 h 41.8 v 41.6 h 49.9 v -41.6 h 41.9 V 64.34 H 445.8 V 22.49 Z M 52.92,62.89 V 93.47 H 22.39 v 36.63 h 30.53 v 30.4 h 36.4 V 130.1 H 119.9 V 93.47 H 89.32 V 62.89 Z M 92.63,199.7 v 21.8 H 70.75 v 26.3 h 21.88 v 21.9 h 26.27 v -21.9 h 21.8 v -26.3 h -21.8 v -21.8 z m 355.07,62.4 v 21.8 h -21.9 v 26.3 h 21.9 v 21.9 H 474 v -21.9 h 21.8 V 283.9 H 474 v -21.8 z m -307.5,99.4 v 15 h -15 v 18 h 15 v 15 h 18.1 v -15 h 15 v -18 h -15 v -15 z m 230,45.8 v 15 h -15 v 18 h 15 v 15 h 18 v -15 h 15 v -18 h -15 v -15 z M 49.32,431.8 v 15 h -15 v 18 h 15 v 15 h 18.01 v -15 h 15 v -18 h -15 v -15 z"
       fill="#000000"
       fill-opacity="1"
       id="path847"
       style="fill:#00ff80;fill-opacity:1" />
  </g>
  <g
     id="charge"
     transform="matrix(0.27347506,0,0,0.27347506,-6.3118019,143.99722)">
    <path
       d="m 256,21.95 -5.4,4.03 C 187.5,73.41 125.4,104.5 30.58,120.3 l -7.5,1.2 v 7.6 c 0,19 8.4,48.7 22.1,85.1 13.6,36.5 32.8,78.8 55.02,119.2 22.3,40.4 47.4,78.9 73.8,107.7 26.1,28.9 53.5,48.9 82,48.9 28.5,0 55.9,-20 82.2,-48.9 26.2,-28.8 51.3,-67.3 73.7,-107.7 22.2,-40.4 41.3,-82.7 55,-119.2 13.6,-36.4 22,-66.1 22,-85.1 v -7.6 l -7.4,-1.2 C 386.9,104.5 324.6,73.41 261.4,25.98 Z m 0,22.2 c 61.1,45.04 124.4,76.15 214.4,92.35 -1.9,15.2 -9,41.4 -20.3,71.5 -4.1,10.8 -8.6,22.2 -13.7,34 H 288 v -48.9 l 64,16 -96,-111.96 -96,111.96 64,-16 V 242 H 75.57 C 70.57,230.2 65.98,218.8 61.88,208 50.68,177.9 43.48,151.7 41.58,136.5 131.6,120.3 194.8,89.19 256,44.15 Z"
       fill="#000000"
       fill-opacity="1"
       id="path830"
       style="fill:#3f3f3f;fill-opacity:1" />
    <path
       style="fill:#ffcc00;fill-opacity:1;stroke:#3f3f3f;stroke-width:4px;stroke-linecap:butt;stroke-linejoin:miter;stroke-opacity:1"
       d="M 224,379.57595 V 193.1 l -64,16 96,-111.96 96,111.96 -64,-16 v 186.47595 z"
       id="path1289"
       sodipodi:nodetypes="cccccccc" />
  </g>
</svg>
