<?xml version="1.0" encoding="UTF-8" standalone="no"?>
<svg
   version="1.1"
   id="svg1077"
   sodipodi:docname="charge_sprsht.svg"
   inkscape:version="1.1 (c4e8f9e, 2021-05-24)"
   width="170.21844"
   height="81.131065"
   viewBox="0 0 170.21844 81.131064"
   xmlns:inkscape="http://www.inkscape.org/namespaces/inkscape"
   xmlns:sodipodi="http://sodipodi.sourceforge.net/DTD/sodipodi-0.dtd"
   xmlns="http://www.w3.org/2000/svg"
   xmlns:svg="http://www.w3.org/2000/svg">
  <sodipodi:namedview
     id="namedview1079"
     pagecolor="#ffffff"
     bordercolor="#666666"
     borderopacity="1.0"
     inkscape:pageshadow="2"
     inkscape:pageopacity="0.0"
     inkscape:pagecheckerboard="true"
     showgrid="true"
     inkscape:zoom="2.09659"
     inkscape:cx="87.523073"
     inkscape:cy="58.666692"
     inkscape:window-width="1920"
     inkscape:window-height="1028"
     inkscape:window-x="0"
     inkscape:window-y="27"
     inkscape:window-maximized="1"
     inkscape:current-layer="svg1077"
     fit-margin-top="0"
     fit-margin-left="0"
     fit-margin-right="0"
     fit-margin-bottom="0"
     showguides="false"
     viewbox-x="0"
     inkscape:snap-global="true"
     inkscape:snap-bbox="false">
    <inkscape:grid
       type="xygrid"
       id="grid11733"
       enabled="false"
       dotted="false"
       originx="-2.3907769"
       originy="-89.434464" />
  </sodipodi:namedview>
  <defs
     id="defs561" />
  <g
     id="on"
     transform="translate(-12.656023,-41.172074)">
    <path
       stroke="none"
       fill="#ffd948"
       d="m 13.515479,81.737607 c 0,-10.985348 3.838254,-20.382453 11.514762,-28.191315 7.808862,-7.676508 17.205967,-11.514762 28.191315,-11.514762 10.985348,0 20.316275,3.838254 27.992783,11.514762 7.808863,7.808862 11.713294,17.205967 11.713294,28.191315 0,10.985348 -3.904431,20.316273 -11.713294,27.992783 -7.676508,7.80887 -17.007435,11.7133 -27.992783,11.7133 -10.985348,0 -20.382453,-3.90443 -28.191315,-11.7133 C 17.353733,102.05388 13.515479,92.722955 13.515479,81.737607"
       id="path763-6"
       style="fill:#ffcc00;fill-opacity:1;stroke-width:3.97061"
       sodipodi:nodetypes="ccssscssc" />
    <path
       stroke="none"
       fill="#ffcc00"
       d="m 26.177867,81.737607 h 54.087378 q 0,11.155522 -7.944084,19.099603 -7.944084,7.94409 -19.099605,7.94409 -11.155522,0 -19.099605,-7.94409 -7.944084,-7.944081 -7.944084,-19.099603"
       id="path765-7"
       style="fill:#ffe78f;fill-opacity:1;stroke-width:3.38046" />
    <path
       stroke="none"
       fill="#cda400"
       d="m 12.656023,81.737607 q 0,-16.733282 11.831613,-28.733919 12.000637,-11.831614 28.73392,-11.831614 16.902305,0 28.733919,11.831614 11.831614,11.831614 11.831614,28.733919 0,16.733282 -11.831614,28.564893 l -0.169023,0.16903 q -11.831614,11.83161 -28.564896,11.83161 -16.902306,0 -28.73392,-11.83161 Q 12.656023,98.639912 12.656023,81.737607 m 6.760922,0 q 0,14.028914 9.803337,23.832253 9.97236,9.97236 24.001274,9.97236 14.028913,0 23.83225,-9.97236 9.972361,-9.803339 9.972361,-23.832253 0,-14.028914 -9.972361,-24.001274 -9.803337,-9.803337 -23.83225,-9.803337 -14.028914,0 -24.001274,9.803337 -9.803337,9.97236 -9.803337,24.001274"
       id="path767-5"
       style="fill:#997b00;fill-opacity:1;stroke-width:3.38046" />
  </g>
  <g
     id="off"
     transform="translate(76.431354,-41.172074)">
    <path
       stroke="none"
       fill="#ffd948"
       d="m 13.515479,81.737607 c 0,-10.985348 3.838254,-20.382453 11.514762,-28.191315 7.808862,-7.676508 17.205967,-11.514762 28.191315,-11.514762 10.985348,0 20.316275,3.838254 27.992783,11.514762 7.808863,7.808862 11.713294,17.205967 11.713294,28.191315 0,10.985348 -3.904431,20.316273 -11.713294,27.992783 -7.676508,7.80887 -17.007435,11.7133 -27.992783,11.7133 -10.985348,0 -20.382453,-3.90443 -28.191315,-11.7133 C 17.353733,102.05388 13.515479,92.722955 13.515479,81.737607"
       id="path763-6-5-1"
       style="fill:#343434;fill-opacity:1;stroke-width:3.97061"
       sodipodi:nodetypes="ccssscssc" />
    <path
       stroke="none"
       fill="#ffcc00"
       d="m 26.177867,81.737607 h 54.087378 q 0,11.155522 -7.944084,19.099603 -7.944084,7.94409 -19.099605,7.94409 -11.155522,0 -19.099605,-7.94409 -7.944084,-7.944081 -7.944084,-19.099603"
       id="path765-7-6-2"
       style="fill:#555555;fill-opacity:1;stroke-width:3.38046" />
    <path
       stroke="none"
       fill="#cda400"
       d="m 12.656023,81.737607 q 0,-16.733282 11.831613,-28.733919 12.000637,-11.831614 28.73392,-11.831614 16.902305,0 28.733919,11.831614 11.831614,11.831614 11.831614,28.733919 0,16.733282 -11.831614,28.564893 l -0.169023,0.16903 q -11.831614,11.83161 -28.564896,11.83161 -16.902306,0 -28.73392,-11.83161 Q 12.656023,98.639912 12.656023,81.737607 m 6.760922,0 q 0,14.028914 9.803337,23.832253 9.97236,9.97236 24.001274,9.97236 14.028913,0 23.83225,-9.97236 9.972361,-9.803339 9.972361,-23.832253 0,-14.028914 -9.972361,-24.001274 -9.803337,-9.803337 -23.83225,-9.803337 -14.028914,0 -24.001274,9.803337 -9.803337,9.97236 -9.803337,24.001274"
       id="path767-5-2-7"
       style="fill:#7d7d7d;fill-opacity:1;stroke-width:3.38046" />
  </g>
</svg>
