{
    "asset" : {
        "generator" : "Khronos glTF Blender I/O v1.6.16",
        "version" : "2.0"
    },
    "scene" : 0,
    "scenes" : [
        {
            "name" : "Scene",
            "nodes" : [
                0
            ]
        }
    ],
    "nodes" : [
        {
            "mesh" : 0,
            "name" : "Cobweb"
        }
    ],
    "materials" : [
        {
            "doubleSided" : true,
            "name" : "Cobweb",
            "pbrMetallicRoughness" : {
                "baseColorFactor" : [
                    0.8970872163772583,
                    0.8970872163772583,
                    0.8970872163772583,
                    1
                ],
                "metallicFactor" : 0,
                "roughnessFactor" : 0.5
            }
        }
    ],
    "meshes" : [
        {
            "name" : "Cylinder.002",
            "primitives" : [
                {
                    "attributes" : {
                        "POSITION" : 0,
                        "NORMAL" : 1
                    },
                    "indices" : 2,
                    "material" : 0
                }
            ]
        }
    ],
    "accessors" : [
        {
            "bufferView" : 0,
            "componentType" : 5126,
            "count" : 2216,
            "max" : [
                0.6465409398078918,
                0.722343921661377,
                0.7876565456390381
            ],
            "min" : [
                -0.559354305267334,
                -0.0323605090379715,
                -0.12320740520954132
            ],
            "type" : "VEC3"
        },
        {
            "bufferView" : 1,
            "componentType" : 5126,
            "count" : 2216,
            "type" : "VEC3"
        },
        {
            "bufferView" : 2,
            "componentType" : 5123,
            "count" : 3324,
            "type" : "SCALAR"
        }
    ],
    "bufferViews" : [
        {
            "buffer" : 0,
            "byteLength" : 26592,
            "byteOffset" : 0
        },
        {
            "buffer" : 0,
            "byteLength" : 26592,
            "byteOffset" : 26592
        },
        {
            "buffer" : 0,
            "byteLength" : 6648,
            "byteOffset" : 53184
        }
    ],
    "buffers" : [
        {
            "byteLength" : 59832,
            "uri" : "Cobweb.bin"
        }
    ]
}
