{
    "asset" : {
        "generator" : "Khronos glTF Blender I/O v1.6.16",
        "version" : "2.0"
    },
    "scene" : 0,
    "scenes" : [
        {
            "name" : "Scene",
            "nodes" : [
                0
            ]
        }
    ],
    "nodes" : [
        {
            "mesh" : 0,
            "name" : "Table_Big"
        }
    ],
    "materials" : [
        {
            "doubleSided" : true,
            "name" : "Main",
            "normalTexture" : {
                "index" : 0
            },
            "pbrMetallicRoughness" : {
                "baseColorTexture" : {
                    "index" : 1
                },
                "metallicRoughnessTexture" : {
                    "index" : 2
                }
            }
        }
    ],
    "meshes" : [
        {
            "name" : "Cube.003",
            "primitives" : [
                {
                    "attributes" : {
                        "POSITION" : 0,
                        "NORMAL" : 1,
                        "TEXCOORD_0" : 2
                    },
                    "indices" : 3,
                    "material" : 0
                }
            ]
        }
    ],
    "textures" : [
        {
            "sampler" : 0,
            "source" : 0
        },
        {
            "sampler" : 0,
            "source" : 1
        },
        {
            "sampler" : 0,
            "source" : 2
        }
    ],
    "images" : [
        {
            "mimeType" : "image/png",
            "name" : "normal-atlas",
            "uri" : "textures/normal-atlas.png"
        },
        {
            "mimeType" : "image/png",
            "name" : "diffuse-atlas-darker",
            "uri" : "textures/diffuse-atlas-darker.png"
        },
        {
            "mimeType" : "image/png",
            "name" : "zero-specular-atlas-INVERTED",
            "uri" : "textures/zero-specular-atlas-INVERTED.png"
        }
    ],
    "accessors" : [
        {
            "bufferView" : 0,
            "componentType" : 5126,
            "count" : 1788,
            "max" : [
                0.7900679111480713,
                0.8488787412643433,
                1.603854775428772
            ],
            "min" : [
                -0.7943981885910034,
                -0.005144578404724598,
                -1.699477195739746
            ],
            "type" : "VEC3"
        },
        {
            "bufferView" : 1,
            "componentType" : 5126,
            "count" : 1788,
            "type" : "VEC3"
        },
        {
            "bufferView" : 2,
            "componentType" : 5126,
            "count" : 1788,
            "type" : "VEC2"
        },
        {
            "bufferView" : 3,
            "componentType" : 5123,
            "count" : 2748,
            "type" : "SCALAR"
        }
    ],
    "bufferViews" : [
        {
            "buffer" : 0,
            "byteLength" : 21456,
            "byteOffset" : 0
        },
        {
            "buffer" : 0,
            "byteLength" : 21456,
            "byteOffset" : 21456
        },
        {
            "buffer" : 0,
            "byteLength" : 14304,
            "byteOffset" : 42912
        },
        {
            "buffer" : 0,
            "byteLength" : 5496,
            "byteOffset" : 57216
        }
    ],
    "samplers" : [
        {
            "magFilter" : 9729,
            "minFilter" : 9987
        }
    ],
    "buffers" : [
        {
            "byteLength" : 62712,
            "uri" : "Table_Big.bin"
        }
    ]
}
