{
    "asset" : {
        "generator" : "Khronos glTF Blender I/O v1.6.16",
        "version" : "2.0"
    },
    "scene" : 0,
    "scenes" : [
        {
            "name" : "Scene",
            "nodes" : [
                0
            ]
        }
    ],
    "nodes" : [
        {
            "mesh" : 0,
            "name" : "Key3"
        }
    ],
    "materials" : [
        {
            "doubleSided" : true,
            "name" : "DarkSteel",
            "pbrMetallicRoughness" : {
                "baseColorFactor" : [
                    0.26635563373565674,
                    0.26635563373565674,
                    0.22322800755500793,
                    1
                ],
                "metallicFactor" : 0,
                "roughnessFactor" : 0.5
            }
        }
    ],
    "meshes" : [
        {
            "name" : "Cube.004",
            "primitives" : [
                {
                    "attributes" : {
                        "POSITION" : 0,
                        "NORMAL" : 1
                    },
                    "indices" : 2,
                    "material" : 0
                }
            ]
        }
    ],
    "accessors" : [
        {
            "bufferView" : 0,
            "componentType" : 5126,
            "count" : 1482,
            "max" : [
                0.22991105914115906,
                0.6172300577163696,
                0.043047890067100525
            ],
            "min" : [
                -0.22916924953460693,
                -0.47288376092910767,
                -0.042867839336395264
            ],
            "type" : "VEC3"
        },
        {
            "bufferView" : 1,
            "componentType" : 5126,
            "count" : 1482,
            "type" : "VEC3"
        },
        {
            "bufferView" : 2,
            "componentType" : 5123,
            "count" : 2232,
            "type" : "SCALAR"
        }
    ],
    "bufferViews" : [
        {
            "buffer" : 0,
            "byteLength" : 17784,
            "byteOffset" : 0
        },
        {
            "buffer" : 0,
            "byteLength" : 17784,
            "byteOffset" : 17784
        },
        {
            "buffer" : 0,
            "byteLength" : 4464,
            "byteOffset" : 35568
        }
    ],
    "buffers" : [
        {
            "byteLength" : 40032,
            "uri" : "Key2.bin"
        }
    ]
}
